<mxfile host="app.diagrams.net" modified="2024-06-29T20:01:50.273Z" agent="Mozilla/5.0 (Windows NT 10.0; Win64; x64) AppleWebKit/537.36 (KHTML, like Gecko) Chrome/126.0.0.0 Safari/537.36 Edg/126.0.0.0" etag="k6gCtUqJU4HhOZFvLdXf" version="24.6.4" type="github">
  <diagram id="C5RBs43oDa-KdzZeNtuy" name="Page-1">
    <mxGraphModel dx="1386" dy="785" grid="1" gridSize="10" guides="1" tooltips="1" connect="1" arrows="1" fold="1" page="1" pageScale="1" pageWidth="827" pageHeight="1169" math="0" shadow="0">
      <root>
        <mxCell id="WIyWlLk6GJQsqaUBKTNV-0" />
        <mxCell id="WIyWlLk6GJQsqaUBKTNV-1" parent="WIyWlLk6GJQsqaUBKTNV-0" />
        <mxCell id="3UZbpPZWJAZXjBH9qGe3-0" value="" style="rounded=1;whiteSpace=wrap;html=1;" vertex="1" parent="WIyWlLk6GJQsqaUBKTNV-1">
          <mxGeometry x="240" y="120" width="470" height="450" as="geometry" />
        </mxCell>
        <mxCell id="3UZbpPZWJAZXjBH9qGe3-16" style="edgeStyle=orthogonalEdgeStyle;rounded=0;orthogonalLoop=1;jettySize=auto;html=1;" edge="1" parent="WIyWlLk6GJQsqaUBKTNV-1" source="3UZbpPZWJAZXjBH9qGe3-1" target="3UZbpPZWJAZXjBH9qGe3-10">
          <mxGeometry relative="1" as="geometry" />
        </mxCell>
        <mxCell id="3UZbpPZWJAZXjBH9qGe3-1" value="Unidade de controle (Decoder)" style="rounded=1;whiteSpace=wrap;html=1;" vertex="1" parent="WIyWlLk6GJQsqaUBKTNV-1">
          <mxGeometry x="294" y="340" width="120" height="110" as="geometry" />
        </mxCell>
        <mxCell id="3UZbpPZWJAZXjBH9qGe3-4" style="edgeStyle=orthogonalEdgeStyle;rounded=0;orthogonalLoop=1;jettySize=auto;html=1;entryX=0;entryY=0.5;entryDx=0;entryDy=0;" edge="1" parent="WIyWlLk6GJQsqaUBKTNV-1" source="3UZbpPZWJAZXjBH9qGe3-2" target="3UZbpPZWJAZXjBH9qGe3-1">
          <mxGeometry relative="1" as="geometry" />
        </mxCell>
        <mxCell id="3UZbpPZWJAZXjBH9qGe3-2" value="Memória com instruções (byte codes)" style="rounded=1;whiteSpace=wrap;html=1;" vertex="1" parent="WIyWlLk6GJQsqaUBKTNV-1">
          <mxGeometry x="20" y="340" width="200" height="190" as="geometry" />
        </mxCell>
        <mxCell id="3UZbpPZWJAZXjBH9qGe3-5" value="Memória (dados)" style="rounded=1;whiteSpace=wrap;html=1;" vertex="1" parent="WIyWlLk6GJQsqaUBKTNV-1">
          <mxGeometry x="370" y="610" width="180" height="170" as="geometry" />
        </mxCell>
        <mxCell id="3UZbpPZWJAZXjBH9qGe3-6" value="Stack" style="rounded=1;whiteSpace=wrap;html=1;" vertex="1" parent="WIyWlLk6GJQsqaUBKTNV-1">
          <mxGeometry x="400" y="620" width="120" height="60" as="geometry" />
        </mxCell>
        <mxCell id="3UZbpPZWJAZXjBH9qGe3-27" style="edgeStyle=orthogonalEdgeStyle;rounded=0;orthogonalLoop=1;jettySize=auto;html=1;exitX=0.25;exitY=0;exitDx=0;exitDy=0;entryX=0.25;entryY=1;entryDx=0;entryDy=0;" edge="1" parent="WIyWlLk6GJQsqaUBKTNV-1" source="3UZbpPZWJAZXjBH9qGe3-8" target="3UZbpPZWJAZXjBH9qGe3-10">
          <mxGeometry relative="1" as="geometry" />
        </mxCell>
        <mxCell id="3UZbpPZWJAZXjBH9qGe3-8" value="Registradores" style="rounded=1;whiteSpace=wrap;html=1;" vertex="1" parent="WIyWlLk6GJQsqaUBKTNV-1">
          <mxGeometry x="450" y="440" width="230" height="100" as="geometry" />
        </mxCell>
        <mxCell id="3UZbpPZWJAZXjBH9qGe3-10" value="" style="rounded=1;whiteSpace=wrap;html=1;" vertex="1" parent="WIyWlLk6GJQsqaUBKTNV-1">
          <mxGeometry x="470" y="190" width="200" height="220" as="geometry" />
        </mxCell>
        <mxCell id="3UZbpPZWJAZXjBH9qGe3-11" value="FPU" style="rounded=1;whiteSpace=wrap;html=1;" vertex="1" parent="WIyWlLk6GJQsqaUBKTNV-1">
          <mxGeometry x="575" y="210" width="85" height="20" as="geometry" />
        </mxCell>
        <mxCell id="3UZbpPZWJAZXjBH9qGe3-20" style="edgeStyle=orthogonalEdgeStyle;rounded=0;orthogonalLoop=1;jettySize=auto;html=1;entryX=0.25;entryY=0;entryDx=0;entryDy=0;" edge="1" parent="WIyWlLk6GJQsqaUBKTNV-1" source="3UZbpPZWJAZXjBH9qGe3-12" target="3UZbpPZWJAZXjBH9qGe3-13">
          <mxGeometry relative="1" as="geometry">
            <Array as="points">
              <mxPoint x="535" y="265" />
            </Array>
          </mxGeometry>
        </mxCell>
        <mxCell id="3UZbpPZWJAZXjBH9qGe3-12" value="Operações aritméticas básicas" style="rounded=1;whiteSpace=wrap;html=1;" vertex="1" parent="WIyWlLk6GJQsqaUBKTNV-1">
          <mxGeometry x="570" y="240" width="95" height="50" as="geometry" />
        </mxCell>
        <mxCell id="3UZbpPZWJAZXjBH9qGe3-23" style="edgeStyle=orthogonalEdgeStyle;rounded=0;orthogonalLoop=1;jettySize=auto;html=1;entryX=0.5;entryY=0;entryDx=0;entryDy=0;" edge="1" parent="WIyWlLk6GJQsqaUBKTNV-1" source="3UZbpPZWJAZXjBH9qGe3-13" target="3UZbpPZWJAZXjBH9qGe3-8">
          <mxGeometry relative="1" as="geometry" />
        </mxCell>
        <mxCell id="3UZbpPZWJAZXjBH9qGe3-13" value="MUX" style="rounded=1;whiteSpace=wrap;html=1;" vertex="1" parent="WIyWlLk6GJQsqaUBKTNV-1">
          <mxGeometry x="515" y="360" width="80" height="30" as="geometry" />
        </mxCell>
        <mxCell id="3UZbpPZWJAZXjBH9qGe3-21" style="edgeStyle=orthogonalEdgeStyle;rounded=0;orthogonalLoop=1;jettySize=auto;html=1;entryX=0.5;entryY=0;entryDx=0;entryDy=0;" edge="1" parent="WIyWlLk6GJQsqaUBKTNV-1" source="3UZbpPZWJAZXjBH9qGe3-17" target="3UZbpPZWJAZXjBH9qGe3-13">
          <mxGeometry relative="1" as="geometry">
            <Array as="points">
              <mxPoint x="555" y="320" />
            </Array>
          </mxGeometry>
        </mxCell>
        <mxCell id="3UZbpPZWJAZXjBH9qGe3-17" value="Comparador" style="rounded=1;whiteSpace=wrap;html=1;" vertex="1" parent="WIyWlLk6GJQsqaUBKTNV-1">
          <mxGeometry x="565" y="300" width="95" height="50" as="geometry" />
        </mxCell>
        <mxCell id="3UZbpPZWJAZXjBH9qGe3-19" style="edgeStyle=orthogonalEdgeStyle;rounded=0;orthogonalLoop=1;jettySize=auto;html=1;entryX=0.113;entryY=-0.067;entryDx=0;entryDy=0;entryPerimeter=0;" edge="1" parent="WIyWlLk6GJQsqaUBKTNV-1" source="3UZbpPZWJAZXjBH9qGe3-11" target="3UZbpPZWJAZXjBH9qGe3-13">
          <mxGeometry relative="1" as="geometry">
            <Array as="points">
              <mxPoint x="524" y="220" />
            </Array>
          </mxGeometry>
        </mxCell>
        <mxCell id="3UZbpPZWJAZXjBH9qGe3-24" value="ISA" style="rounded=1;whiteSpace=wrap;html=1;" vertex="1" parent="WIyWlLk6GJQsqaUBKTNV-1">
          <mxGeometry x="329" y="410" width="50" height="30" as="geometry" />
        </mxCell>
        <mxCell id="3UZbpPZWJAZXjBH9qGe3-28" style="edgeStyle=orthogonalEdgeStyle;rounded=0;orthogonalLoop=1;jettySize=auto;html=1;exitX=0.5;exitY=1;exitDx=0;exitDy=0;entryX=0.717;entryY=-0.012;entryDx=0;entryDy=0;entryPerimeter=0;" edge="1" parent="WIyWlLk6GJQsqaUBKTNV-1" source="3UZbpPZWJAZXjBH9qGe3-8" target="3UZbpPZWJAZXjBH9qGe3-5">
          <mxGeometry relative="1" as="geometry" />
        </mxCell>
        <mxCell id="3UZbpPZWJAZXjBH9qGe3-31" style="edgeStyle=orthogonalEdgeStyle;rounded=0;orthogonalLoop=1;jettySize=auto;html=1;entryX=1;entryY=0.75;entryDx=0;entryDy=0;" edge="1" parent="WIyWlLk6GJQsqaUBKTNV-1" source="3UZbpPZWJAZXjBH9qGe3-29" target="3UZbpPZWJAZXjBH9qGe3-2">
          <mxGeometry relative="1" as="geometry" />
        </mxCell>
        <mxCell id="3UZbpPZWJAZXjBH9qGe3-29" value="Program Counter" style="rounded=1;whiteSpace=wrap;html=1;" vertex="1" parent="WIyWlLk6GJQsqaUBKTNV-1">
          <mxGeometry x="460" y="500" width="100" height="30" as="geometry" />
        </mxCell>
      </root>
    </mxGraphModel>
  </diagram>
</mxfile>
